<svg width="60" height="58" viewBox="0 0 60 58" fill="none" xmlns="http://www.w3.org/2000/svg">
<path fill-rule="evenodd" clip-rule="evenodd" d="M45.36 5.83331H45.3095H45.2454H45.1809H45.1162H45.0511H44.9856H44.9199H44.8539H44.7875H44.7208H44.6538H44.5865H44.5189H44.451H44.3827H44.3142H44.2454H44.1763H44.1068H44.0371H43.9671H43.8969H43.8263H43.7554H43.6843H43.6129H43.5412H43.4692H43.397H43.3245H43.2517H43.1787H43.1054H43.0318H42.958H42.8839H42.8096H42.735H42.6602H42.5851H42.5098H42.4343H42.3585H42.2824H42.2061H42.1296H42.0529H41.9759H41.8987H41.8213H41.7436H41.6658H41.5877H41.5094H41.4309H41.3521H41.2732H41.1941H41.1147H41.0352H40.9554H40.8755H40.7953H40.715H40.6344H40.5537H40.4728H40.3917H40.3105H40.229H40.1474H40.0656H39.9836H39.9014H39.8191H39.7366H39.654H39.5712H39.4882H39.4051H39.3218H39.2383H39.1547H39.071H38.9871H38.9031H38.8189H38.7346H38.6502H38.5656H38.4808H38.396H38.311H38.2259H38.1407H38.0553H37.9699H37.8843H37.7986H37.7127H37.6268H37.5408H37.4546H37.3684H37.282H37.1956H37.109H37.0224H36.9357H36.8488H36.7619H36.6749H36.5878H36.5007H36.4134H36.3261H36.2387H36.1512H36.0637H35.9761H35.8884H35.8007H35.7129H35.625H35.5371H35.4491H35.3611H35.273H35.1849H35.0967H35.0085H34.9202H34.8319H34.7436H34.6552H34.5668H34.4784H34.3899H34.3015H34.213H34.1244H34.0359H33.9473H33.8587H33.7701H33.6815H33.5929H33.5043H33.4157H33.3271H33.2384H33.1498H33.0612H32.9726H32.884H32.7954H32.7068H32.6183H32.5298H32.4412H32.3527H32.2643H32.1758H32.0874H31.9991H31.9107H31.8224H31.7342H31.6459H31.5578H31.4696H31.3815H31.2935H31.2055H31.1176H31.0297H30.9419H30.8541H30.7664H30.6788H30.5913H30.5038H30.4164H30.329H30.2418H30.1546H30.0675H29.9805H29.8935H29.8067H29.7199H29.6333H29.5467H29.4602H29.3739H29.2876H29.2014H29.1154H29.0294H28.9436H28.8579H28.7723H28.6868H28.6014H28.5161H28.431H28.346H28.2611H28.1764H28.0918H28.0073H27.9229H27.8387H27.7547H27.6708H27.587H27.5034H27.4199H27.3366H27.2534H27.1704H27.0876H27.0049H26.9224H26.84H26.7578H26.6758H26.594H26.5123H26.4308H26.3495H26.2684H26.1874H26.1067H26.0261H25.9457H25.8656H25.7856H25.7058H25.6262H25.5468H25.4676H25.3886H25.3099H25.2313H25.153H25.0748H24.9969H24.9192H24.8418H24.7645H24.6875H24.6107H24.5342H24.4578H24.3817H24.3059H24.2303H24.1549H24.0798H24.0049H23.9303H23.8559H23.7818H23.7079H23.6343H23.5609H23.4879H23.415H23.3425H23.2702H23.1982H23.1264H23.055H22.9838H22.9129H22.8422H22.7719H22.7018H22.6321H22.5626H22.4934H22.4245H22.356H22.2877H22.2197H22.152H22.0846H22.0176H21.9508H21.8844H21.8183H21.7525H21.687H21.6218H21.557H21.4925H21.4283H21.3645H21.301H21.2378H21.175H21.1125H21.0503H20.9885H20.927H20.8659H20.8052H20.7448H20.6847H20.625H20.5657H20.5067H20.4481H20.3899H20.332H20.2745H20.2174H20.1607H20.1043H20.0483H19.9927H19.9375H19.8827H19.8283H19.7742H19.7206H19.6673H19.6145H19.562H19.51H19.4583H19.4071H19.3562H19.3058H19.2558H19.2062H19.1571H19.1083H19.06H19.0121H18.9647H18.9176H18.871H18.8248H18.7791H18.7338H18.689H18.6446H18.6006H18.5571H18.514H18.4714H18.4292H18.3875H18.3463H18.3055H18.2652H18.2253H18.186H18.147H18.1086H18.0706H18.0331H17.9961H17.9596H17.9236H17.888H17.8529H17.8183H17.7843H17.7507H17.7176H17.685H17.6529H17.6213H17.5902H17.5596H17.5296H17.5C16.4182 5.83331 15.6737 6.0923 15.1511 6.42909C14.6238 6.76887 14.263 7.22643 14.0132 7.7094C13.761 8.19698 13.63 8.6961 13.5636 9.08134C13.5308 9.27167 13.5148 9.42799 13.507 9.53265C13.5032 9.58482 13.5014 9.62363 13.5006 9.64683L13.5 9.66946L13.5 9.67031V40.0833H35C35.5523 40.0833 36 40.531 36 41.0833L36 48.3301L36 48.3302L36 48.3305L36.0006 48.3531C36.0014 48.3763 36.0032 48.4151 36.007 48.4673C36.0148 48.572 36.0308 48.7283 36.0636 48.9186C36.13 49.3039 36.261 49.803 36.5132 50.2906C36.763 50.7735 37.1238 51.2311 37.6511 51.5709C38.1737 51.9077 38.9182 52.1666 40 52.1666C41.0818 52.1666 41.8263 51.9077 42.3489 51.5709C42.8762 51.2311 43.237 50.7735 43.4868 50.2906C43.739 49.803 43.87 49.3039 43.9364 48.9186C43.9692 48.7283 43.9852 48.572 43.993 48.4673C43.9968 48.4151 43.9986 48.3763 43.9994 48.3531L44 48.3305L44 48.3301L44 48.3315V16.9166V9.66665H45C44 9.66665 44 9.66612 44 9.66558L44 9.6644L44 9.66169L44.0001 9.65493L44.0003 9.6361C44.0005 9.62122 44.001 9.60172 44.0018 9.5779C44.0035 9.5303 44.0066 9.46527 44.0125 9.38527C44.0243 9.22562 44.0474 9.00433 44.0927 8.74153C44.1825 8.22053 44.364 7.51131 44.7368 6.79056C44.9024 6.47041 45.1072 6.14532 45.36 5.83331ZM11.5 40.0833V9.66665H12.5C11.5 9.66665 11.5 9.66612 11.5 9.66558L11.5 9.6644L11.5 9.66169L11.5001 9.65493L11.5003 9.6361C11.5005 9.62122 11.501 9.60172 11.5018 9.5779C11.5035 9.5303 11.5066 9.46527 11.5125 9.38527C11.5243 9.22562 11.5474 9.00433 11.5927 8.74153C11.6825 8.22053 11.864 7.51131 12.2368 6.79056C12.612 6.06519 13.1887 5.31443 14.0677 4.74795C14.9513 4.17849 16.0818 3.83331 17.5 3.83331H17.5296H17.5596H17.5902H17.6213H17.6529H17.685H17.7176H17.7507H17.7843H17.8183H17.8529H17.888H17.9236H17.9596H17.9961H18.0331H18.0706H18.1086H18.147H18.186H18.2253H18.2652H18.3055H18.3463H18.3875H18.4292H18.4714H18.514H18.5571H18.6006H18.6446H18.689H18.7338H18.7791H18.8248H18.871H18.9176H18.9647H19.0121H19.06H19.1083H19.1571H19.2062H19.2558H19.3058H19.3562H19.4071H19.4583H19.51H19.562H19.6145H19.6673H19.7206H19.7742H19.8283H19.8827H19.9375H19.9927H20.0483H20.1043H20.1607H20.2174H20.2745H20.332H20.3899H20.4481H20.5067H20.5657H20.625H20.6847H20.7448H20.8052H20.8659H20.927H20.9885H21.0503H21.1125H21.175H21.2378H21.301H21.3645H21.4283H21.4925H21.557H21.6218H21.687H21.7525H21.8183H21.8844H21.9508H22.0176H22.0846H22.152H22.2197H22.2877H22.356H22.4245H22.4934H22.5626H22.6321H22.7018H22.7719H22.8422H22.9129H22.9838H23.055H23.1264H23.1982H23.2702H23.3425H23.415H23.4879H23.5609H23.6343H23.7079H23.7818H23.8559H23.9303H24.0049H24.0798H24.1549H24.2303H24.3059H24.3817H24.4578H24.5342H24.6107H24.6875H24.7645H24.8418H24.9192H24.9969H25.0748H25.153H25.2313H25.3099H25.3886H25.4676H25.5468H25.6262H25.7058H25.7856H25.8656H25.9457H26.0261H26.1067H26.1874H26.2684H26.3495H26.4308H26.5123H26.594H26.6758H26.7578H26.84H26.9224H27.0049H27.0876H27.1704H27.2534H27.3366H27.4199H27.5034H27.587H27.6708H27.7547H27.8387H27.9229H28.0073H28.0918H28.1764H28.2611H28.346H28.431H28.5161H28.6014H28.6868H28.7723H28.8579H28.9436H29.0294H29.1154H29.2014H29.2876H29.3739H29.4602H29.5467H29.6333H29.7199H29.8067H29.8935H29.9805H30.0675H30.1546H30.2418H30.329H30.4164H30.5038H30.5913H30.6788H30.7664H30.8541H30.9419H31.0297H31.1176H31.2055H31.2935H31.3815H31.4696H31.5578H31.6459H31.7342H31.8224H31.9107H31.9991H32.0874H32.1758H32.2643H32.3527H32.4412H32.5298H32.6183H32.7068H32.7954H32.884H32.9726H33.0612H33.1498H33.2384H33.3271H33.4157H33.5043H33.5929H33.6815H33.7701H33.8587H33.9473H34.0359H34.1244H34.213H34.3015H34.3899H34.4784H34.5668H34.6552H34.7436H34.8319H34.9202H35.0085H35.0967H35.1849H35.273H35.3611H35.4491H35.5371H35.625H35.7129H35.8007H35.8884H35.9761H36.0637H36.1512H36.2387H36.3261H36.4134H36.5007H36.5878H36.6749H36.7619H36.8488H36.9357H37.0224H37.109H37.1956H37.282H37.3684H37.4546H37.5408H37.6268H37.7127H37.7986H37.8843H37.9699H38.0553H38.1407H38.2259H38.311H38.396H38.4808H38.5656H38.6502H38.7346H38.8189H38.9031H38.9871H39.071H39.1547H39.2383H39.3218H39.4051H39.4882H39.5712H39.654H39.7366H39.8191H39.9014H39.9836H40.0656H40.1474H40.229H40.3105H40.3917H40.4728H40.5537H40.6344H40.715H40.7953H40.8755H40.9554H41.0352H41.1147H41.1941H41.2732H41.3521H41.4309H41.5094H41.5877H41.6658H41.7436H41.8213H41.8987H41.9759H42.0529H42.1296H42.2061H42.2824H42.3585H42.4343H42.5098H42.5851H42.6602H42.735H42.8096H42.8839H42.958H43.0318H43.1054H43.1787H43.2517H43.3245H43.397H43.4692H43.5412H43.6129H43.6843H43.7554H43.8263H43.8969H43.9671H44.0371H44.1068H44.1763H44.2454H44.3142H44.3827H44.451H44.5189H44.5865H44.6538H44.7208H44.7875H44.8539H44.9199H44.9856H45.0511H45.1162H45.1809H45.2454H45.3095H45.3733H45.4367H45.4998H45.5626H45.625H45.6871H45.7488H45.8102H45.8713H45.9319H45.9923H46.0523H46.1119H46.1711H46.23H46.2885H46.3467H46.4045H46.4619H46.519H46.5756H46.6319H46.6878H46.7433H46.7985H46.8532H46.9076H46.9615H47.0151H47.0683H47.1211H47.1734H47.2254H47.277H47.3281H47.3789H47.4292H47.4791H47.5286H47.5777H47.6264H47.6746H47.7224H47.7698H47.8167H47.8633H47.9093H47.955H48.0002H48.045H48.0893H48.1331H48.1766H48.2196H48.2621H48.3041H48.3458H48.3869H48.4276H48.4678H48.5076H48.5469H48.5857H48.624H48.6619H48.6993H48.7362H48.7726H48.8086H48.8441H48.879H48.9135H48.9475H48.981H49.014H49.0465H49.0785H49.11H49.141H49.1714H49.2014H49.2309H49.2598H49.2882H49.3161H49.3435H49.3703H49.3967H49.4225H49.4477H49.4724H49.4966H49.5203H49.5434H49.566H49.588H49.6095H49.6305H49.6508H49.6707H49.6899H49.7087H49.7268H49.7444H49.7614H49.7779H49.7938H49.8091H49.8239H49.8381H49.8516H49.8647H49.8771H49.8889H49.9002H49.9109H49.921H49.9304H49.9393H49.9476H49.9553H49.9624H49.9689H49.9748H49.98H49.9847H49.9888H49.9922H49.995H49.9972H49.9987H49.9997C49.9998 3.83331 49.9999 3.83331 50 3.83331C51.4182 3.83331 52.5487 4.17849 53.4323 4.74795C54.3113 5.31443 54.888 6.06519 55.2632 6.79056C55.636 7.51131 55.8175 8.22053 55.9073 8.74153C55.9526 9.00433 55.9757 9.22562 55.9875 9.38527C55.9934 9.46527 55.9965 9.5303 55.9982 9.5779C55.999 9.60172 55.9995 9.62122 55.9997 9.6361L55.9999 9.65493L56 9.66169L56 9.6644L56 9.66558C56 9.66612 56 9.66665 55 9.66665H56V16.9166C56 17.4689 55.5523 17.9166 55 17.9166H46V48.3333H45C46 48.3333 46 48.3338 46 48.3344L46 48.3356L46 48.3383L45.9999 48.345L45.9997 48.3639C45.9995 48.3787 45.999 48.3982 45.9982 48.4221C45.9965 48.4697 45.9934 48.5347 45.9875 48.6147C45.9757 48.7743 45.9526 48.9956 45.9073 49.2584C45.8175 49.7794 45.636 50.4887 45.2632 51.2094C44.888 51.9348 44.3113 52.6855 43.4323 53.252C42.5487 53.8215 41.4182 54.1666 40 54.1666H39.9705H39.9407H39.9106H39.8801H39.8493H39.8181H39.7866H39.7548H39.7226H39.6901H39.6573H39.6241H39.5906H39.5568H39.5227H39.4882H39.4534H39.4183H39.3829H39.3472H39.3111H39.2748H39.2381H39.2011H39.1638H39.1262H39.0882H39.05H39.0115H38.9726H38.9335H38.894H38.8543H38.8143H38.7739H38.7333H38.6923H38.6511H38.6096H38.5678H38.5257H38.4833H38.4406H38.3976H38.3544H38.3109H38.2671H38.223H38.1786H38.1339H38.089H38.0438H37.9983H37.9526H37.9066H37.8603H37.8137H37.7669H37.7198H37.6725H37.6249H37.577H37.5289H37.4805H37.4318H37.3829H37.3337H37.2843H37.2347H37.1847H37.1346H37.0842H37.0335H36.9826H36.9314H36.88H36.8284H36.7765H36.7244H36.6721H36.6195H36.5666H36.5136H36.4603H36.4068H36.353H36.2991H36.2449H36.1904H36.1358H36.0809H36.0258H35.9705H35.9149H35.8592H35.8032H35.747H35.6906H35.634H35.5772H35.5202H35.463H35.4055H35.3479H35.29H35.232H35.1737H35.1152H35.0566H34.9977H34.9387H34.8795H34.82H34.7604H34.7006H34.6406H34.5804H34.52H34.4594H34.3987H34.3378H34.2766H34.2154H34.1539H34.0922H34.0304H33.9684H33.9062H33.8439H33.7814H33.7187H33.6559H33.5929H33.5297H33.4663H33.4028H33.3392H33.2753H33.2113H33.1472H33.0829H33.0185H32.9539H32.8891H32.8242H32.7591H32.6939H32.6286H32.5631H32.4975H32.4317H32.3658H32.2997H32.2335H32.1672H32.1007H32.0341H31.9674H31.9005H31.8335H31.7664H31.6991H31.6317H31.5642H31.4966H31.4289H31.361H31.293H31.2249H31.1567H31.0883H31.0199H30.9513H30.8826H30.8138H30.7449H30.6759H30.6068H30.5376H30.4683H30.3989H30.3293H30.2597H30.19H30.1202H30.0503H29.9803H29.9102H29.84H29.7697H29.6994H29.6289H29.5584H29.4877H29.417H29.3463H29.2754H29.2044H29.1334H29.0623H28.9911H28.9199H28.8486H28.7772H28.7057H28.6342H28.5626H28.4909H28.4192H28.3474H28.2755H28.2036H28.1316H28.0596H27.9875H27.9154H27.8432H27.7709H27.6986H27.6263H27.5539H27.4814H27.409H27.3364H27.2638H27.1912H27.1186H27.0459H26.9731H26.9004H26.8276H26.7547H26.6819H26.6089H26.536H26.4631H26.3901H26.3171H26.244H26.171H26.0979H26.0248H25.9517H25.8785H25.8054H25.7322H25.659H25.5858H25.5126H25.4394H25.3662H25.293H25.2197H25.1465H25.0732H25H24.9268H24.8535H24.7803H24.707H24.6338H24.5606H24.4874H24.4142H24.341H24.2678H24.1946H24.1215H24.0483H23.9752H23.9021H23.829H23.756H23.6829H23.6099H23.5369H23.464H23.3911H23.3181H23.2453H23.1724H23.0996H23.0269H22.9541H22.8814H22.8088H22.7362H22.6636H22.591H22.5186H22.4461H22.3737H22.3014H22.2291H22.1568H22.0846H22.0125H21.9404H21.8684H21.7964H21.7245H21.6526H21.5808H21.5091H21.4374H21.3658H21.2943H21.2228H21.1514H21.0801H21.0089H20.9377H20.8666H20.7956H20.7246H20.6537H20.583H20.5123H20.4416H20.3711H20.3006H20.2303H20.16H20.0898H20.0197H19.9497H19.8798H19.81H19.7403H19.6707H19.6011H19.5317H19.4624H19.3932H19.3241H19.2551H19.1862H19.1174H19.0487H18.9801H18.9117H18.8433H18.7751H18.707H18.639H18.5711H18.5034H18.4358H18.3683H18.3009H18.2336H18.1665H18.0995H18.0326H17.9659H17.8993H17.8328H17.7665H17.7003H17.6342H17.5683H17.5025H17.4369H17.3714H17.3061H17.2409H17.1758H17.1109H17.0461H16.9815H16.9171H16.8528H16.7887H16.7247H16.6608H16.5972H16.5337H16.4703H16.4071H16.3441H16.2813H16.2186H16.1561H16.0938H16.0316H15.9696H15.9078H15.8461H15.7846H15.7234H15.6622H15.6013H15.5406H15.48H15.4196H15.3594H15.2994H15.2396H15.18H15.1205H15.0613H15.0023H14.9434H14.8848H14.8263H14.768H14.71H14.6521H14.5945H14.537H14.4798H14.4228H14.366H14.3094H14.253H14.1968H14.1408H14.0851H14.0295H13.9742H13.9191H13.8642H13.8096H13.7551H13.7009H13.647H13.5932H13.5397H13.4864H13.4334H13.3805H13.3279H13.2756H13.2235H13.1716H13.12H13.0686H13.0174H12.9665H12.9158H12.8654H12.8153H12.7653H12.7157H12.6663H12.6171H12.5682H12.5195H12.4711H12.423H12.3751H12.3275H12.2802H12.2331H12.1863H12.1397H12.0934H12.0474H12.0017H11.9562H11.911H11.8661H11.8214H11.777H11.7329H11.6891H11.6456H11.6024H11.5594H11.5167H11.4743H11.4322H11.3904H11.3489H11.3077H11.2667H11.2261H11.1857H11.1457H11.106H11.0665H11.0274H10.9885H10.95H10.9118H10.8738H10.8362H10.7989H10.7619H10.7252H10.6889H10.6528H10.6171H10.5817H10.5466H10.5118H10.4773H10.4432H10.4094H10.3759H10.3427H10.3099H10.2774H10.2452H10.2134H10.1819H10.1507H10.1199H10.0894H10.0593H10.0295H10C8.58182 54.1666 7.45132 53.8215 6.56767 53.252C5.68866 52.6855 5.11197 51.9348 4.73678 51.2094C4.36398 50.4887 4.18249 49.7794 4.09266 49.2584C4.04736 48.9956 4.02428 48.7743 4.01248 48.6147C4.00657 48.5347 4.00346 48.4697 4.00181 48.4221C4.00099 48.3982 4.00054 48.3787 4.00029 48.3639L4.00005 48.345L4.00001 48.3383L4 48.3356L4 48.3344C4 48.3338 4 48.3333 5 48.3333H4V41.0833C4 40.531 4.44772 40.0833 5 40.0833H11.5ZM54 15.9166H46V9.66845L46 9.66984L46 9.66946L46.0006 9.64683C46.0014 9.62363 46.0032 9.58482 46.007 9.53265C46.0148 9.42799 46.0308 9.27167 46.0636 9.08134C46.13 8.6961 46.261 8.19698 46.5132 7.7094C46.763 7.22643 47.1238 6.76887 47.6511 6.42909C48.1737 6.0923 48.9182 5.83331 50 5.83331C51.0818 5.83331 51.8263 6.0923 52.3489 6.42909C52.8762 6.76887 53.237 7.22643 53.4868 7.7094C53.739 8.19698 53.87 8.6961 53.9364 9.08134C53.9692 9.27167 53.9852 9.42799 53.993 9.53265C53.9968 9.58482 53.9986 9.62363 53.9994 9.64683L54 9.66946L54 9.66984L54 9.66845V15.9166ZM34.7368 51.2094C34.9024 51.5295 35.1072 51.8546 35.36 52.1666L6 42.0833H12.5H34V48.3333H35C34 48.3333 34 48.3338 34 48.3344L34 48.3356L34 48.3383L34 48.345L34.0003 48.3639C34.0005 48.3787 34.001 48.3982 34.0018 48.4221C34.0035 48.4697 34.0066 48.5347 34.0125 48.6147C34.0243 48.7743 34.0474 48.9956 34.0927 49.2584C34.1825 49.7794 34.364 50.4887 34.7368 51.2094Z" fill="#5F2EEA"/>
<path d="M22.5 19.3333H35" stroke="#5F2EEA" stroke-width="2" stroke-linecap="round" stroke-linejoin="round"/>
<path d="M22.5 29H35" stroke="#5F2EEA" stroke-width="2" stroke-linecap="round" stroke-linejoin="round"/>
</svg>
